<svg xmlns="http://www.w3.org/2000/svg" width="94" height="28" fill="none" viewBox="0 0 94 28">
    <g clip-path="url(#clip0)">
        <path fill="#D82438" d="M42.88 0l5.688 12.838H45.86l-.837-1.91h-4.267l-.838 1.91H37.21L42.88 0zm1.13 8.684l-1.13-2.659-1.15 2.659h2.28zM49.776.256h2.494v12.582h-2.494V.256zM53.984.256h4.053c1.383 0 2.513.532 3.253 1.28.76.768 1.208 1.457 1.208 2.855v.335c0 .847-.253 1.654-.78 2.402-.428.61-.779.886-1.48 1.162l2.883 4.548h-3.058l-3.566-5.572v5.572h-2.493L53.984.256zm3.449 5.986h.837c.916 0 1.637-.807 1.637-1.772 0-.453-.156-.866-.487-1.201-.331-.315-.935-.493-1.54-.493h-1.402v3.466h.955zM66.842.256v10.062h5.007v2.52h-7.5V.256h2.493zM72.901.256h2.494v12.582H72.9V.256zM84.61.217v2.52h-5.007v2.54h3.76v2.52h-3.76v5.041H77.11V.217h7.5zM94 .256v2.5h-3.059v10.082h-2.513V2.757H85.37v-2.5H94zM16.93 23.904c-.955.355-1.968.532-2.981.532-.136 0-.273 0-.39-.02h-.33c-1.56 0-3.118-.394-4.501-1.122-2.65-1.34-4.598-3.761-5.358-6.655-.954-3.643.137-7.522 2.825-10.102 1.87-1.91 4.481-2.993 7.13-2.993h.429c.955 0 1.91.158 2.825.433.292.099.507.119 1.948.119h1.54l2.396-.02-.215-.197c-1.85-1.654-4.11-2.737-6.526-3.17C14.884.61 14.027.55 13.189.55c-.487 0-.993.02-1.46.06-2.962.393-5.748 1.771-7.852 3.918C1.89 6.518.565 9.136.137 11.932c-.273 1.97-.137 3.938.37 5.829 1.09 3.741 3.701 6.832 7.188 8.467 1.306.61 2.689 1.004 4.091 1.2.468.04.955.06 1.442.06.838 0 1.676-.06 2.494-.177 2.669-.492 5.104-1.733 7.052-3.623h-5.24l-.604.216z"/>
        <path fill="#D82438" d="M24.956 6.36c-9.858 0-12.838.02-13.228.098-1.091.217-2.123.63-3.04 1.26-.759.572-1.44 1.26-1.986 2.048l-.078.119 13.774.02h7.305c5.591 0 7.014-.02 7.247-.1 1.189-.373 2.319-1.929 2.455-3.307l.02-.158-12.469.02zM5.533 12.641c-.136.886-.117 1.792.02 2.678l.058.296 12.702.02 11.904.019c1.422 0 2.493-.61 3.194-1.831.351-.61.527-1.24.585-1.595H5.611l-.078.413zM6.643 18.017c.565.945 2.377 3.406 5.825 3.406h11.748c3.662 0 5.591-2.5 6.215-3.465H18.547c-5.942 0-10.56.02-11.904.059z"/>
        <path fill="#191515" d="M40.308 14.512c1.286 0 2.26.413 2.922 1.24.682.808.896 1.89.682 3.23l-.156.886h-6.312c-.039.709.097 1.26.448 1.634.35.374.857.571 1.54.571 1.07 0 1.811-.413 2.2-1.24l1.91.138c-.273.866-.799 1.535-1.54 2.047-.759.512-1.616.748-2.59.748-1.325 0-2.358-.433-3.078-1.28-.721-.846-.975-2.008-.78-3.465.176-1.378.702-2.461 1.578-3.288.877-.827 1.949-1.221 3.176-1.221zm-2.65 3.82h4.423c.078-.69-.04-1.22-.35-1.595-.313-.374-.8-.551-1.462-.551-.682 0-1.247.197-1.695.57-.448.355-.76.887-.916 1.576z"/>
        <path fill="#D82438" d="M48.782 19.12l-1.207 1.496-2.377 2.954h-2.202l3.76-4.608-2.084-4.293h2.026l1.266 2.698.819 1.752z"/>
        <path fill="#191515" d="M49.133 19.947l1.968 3.505h-2.007l-.565-1.241c-.273-.571-.195-1.26.214-1.772l.39-.492zM49.191 18.588l-.74-1.575 1.89-2.442h2.201l-3.35 4.017zM58.27 14.512c1.247 0 2.221.433 2.903 1.3.682.846.916 2.008.72 3.445-.194 1.379-.7 2.462-1.538 3.289-.818.807-1.85 1.2-3.078 1.2-1.364 0-2.28-.452-2.767-1.377L53.478 28h-1.851l2.28-13.33h1.772l-.195 1.102c.565-.847 1.481-1.26 2.786-1.26zm-.409 1.674c-.74 0-1.364.236-1.85.689-.488.453-.8 1.083-.916 1.89l-.078.512c-.137.886 0 1.556.39 2.048s.974.729 1.733.729c.76 0 1.403-.256 1.929-.768s.838-1.221.955-2.107c.136-.906 0-1.635-.41-2.186-.428-.532-1.012-.807-1.753-.807zM68.46 14.551l-.313 1.89c-.7 0-1.324.217-1.83.65-.527.433-.839 1.005-.955 1.674l-.819 4.785h-1.89l1.54-8.9h1.773l-.195 1.2c.545-.846 1.441-1.299 2.688-1.299zM73.232 14.512c1.286 0 2.26.413 2.922 1.24.682.808.897 1.89.682 3.23l-.156.886h-6.312c-.039.709.098 1.26.448 1.634.351.374.858.571 1.54.571 1.071 0 1.811-.413 2.201-1.24l1.91.138c-.274.866-.8 1.535-1.54 2.047-.76.512-1.617.748-2.591.748-1.325 0-2.357-.433-3.078-1.28-.72-.846-.974-2.008-.78-3.465.176-1.378.702-2.461 1.579-3.288.876-.827 1.928-1.221 3.175-1.221zm-2.65 3.82h4.423c.078-.69-.039-1.22-.35-1.595-.312-.374-.8-.551-1.462-.551-.682 0-1.247.197-1.695.57-.448.355-.76.887-.915 1.576zM81.337 14.512c1.013 0 1.772.276 2.298.827.507.551.76 1.24.76 2.028l-1.89.06c.04-.375-.077-.67-.311-.907-.234-.236-.585-.354-1.033-.354-.857 0-1.344.335-1.46 1.004-.04.079-.06.138-.02.217.039.079.039.138.039.177-.02.04.02.099.078.138.058.04.097.079.117.118.019.02.077.06.155.098.098.04.156.08.195.08.04.019.117.039.214.078.098.02.195.059.254.079.058.02.156.04.292.078.117.02.214.06.312.08 1.032.275 1.753.59 2.201 1.004.429.393.604.964.487 1.712-.117.867-.506 1.517-1.169 2.009-.643.473-1.48.729-2.493.729-1.052 0-1.851-.256-2.436-.768-.584-.512-.857-1.221-.837-2.088l1.87-.078c-.02.413.117.709.37.925.273.217.643.315 1.11.315.994 0 1.54-.335 1.656-1.004.04-.335-.038-.59-.272-.748-.234-.158-.663-.335-1.325-.512-.507-.138-.916-.256-1.227-.355-.293-.118-.585-.275-.858-.472-.545-.374-.76-1.005-.623-1.87.117-.808.468-1.419 1.09-1.891.644-.492 1.443-.709 2.456-.709zM89.09 14.512c1.014 0 1.773.276 2.3.827.506.551.76 1.24.76 2.028l-1.89.06c.038-.375-.079-.67-.312-.907-.234-.236-.585-.354-1.033-.354-.857 0-1.344.335-1.46 1.004-.04.079-.06.138-.02.217.038.079.039.138.039.177-.02.04.019.099.078.138.058.04.097.079.116.118.02.02.078.06.156.098.098.04.156.08.195.08.039.019.117.039.214.078.098.02.195.059.254.079.058.02.156.04.292.078.117.02.214.06.312.08 1.032.275 1.753.59 2.201 1.004.429.393.604.964.487 1.712-.117.867-.507 1.517-1.169 2.009-.643.473-1.48.729-2.494.729-1.052 0-1.85-.256-2.435-.768-.584-.512-.857-1.221-.837-2.088l1.87-.078c-.02.413.117.709.37.925.273.217.643.315 1.11.315.994 0 1.54-.335 1.656-1.004.04-.335-.039-.59-.272-.748-.234-.158-.663-.335-1.325-.512-.507-.138-.916-.256-1.228-.355-.292-.118-.584-.275-.857-.472-.545-.374-.76-1.005-.623-1.87.117-.808.467-1.419 1.09-1.891.663-.492 1.462-.709 2.456-.709z"/>
    </g>
    <defs>
        <clipPath id="clip0">
            <path fill="#fff" d="M0 0H94V28H0z"/>
        </clipPath>
    </defs>
</svg>